<?xml version="1.0" encoding="utf-8" standalone="no"?>
<!DOCTYPE svg PUBLIC "-//W3C//DTD SVG 1.1//EN" "http://www.w3.org/Graphics/SVG/1.1/DTD/svg11-flat-20030114.dtd">
<!-- Created by SVGDeveloper 1.0 -->
<svg width="700" height="100" version="1.1" xmlns="http://www.w3.org/2000/svg" xmlns:xlink="http://www.w3.org/1999/xlink">
<path fill="rgb(102,51,0)" stroke="rgb(102,51,0)" transform="matrix(1,0,0,1,-29,-3)" d="M 54.0625 40.9375 C 51.77734 44.29688 49.90234 47.20703 48.4375 49.6875 C 47.1875 48.24219 45.42968 46.79688 43.125 45.3125 C 47.08984 41.17188 50.58593 36.42578 53.59375 31.11328 C 56.62109 25.80078 58.86718 20.23438 60.3125 14.375 C 61.77734 15.42969 64.17968 16.48438 67.49999 17.5 C 66.24999 19.17969 63.75 23.67188 60 30.9375 L 60 71.5625 C 60 78.04688 60.11718 83.24219 60.3125 87.1875 L 53.75 87.1875 C 53.96484 83.86719 54.0625 78.55469 54.0625 71.25 ZM 64.06249 45.3125 C 68.86718 39.70703 72.55859 33.76953 75.15624 27.51953 C 77.77343 21.26953 79.06249 17.20703 79.06249 15.3125 C 81.56249 16.36719 84.27734 17.20703 87.18749 17.8125 C 85.93749 18.86719 84.06249 22.10938 81.56249 27.5 L 114.375 27.5 C 113.75 29.39453 112.8125 31.95313 111.5625 35.17578 C 110.3125 38.41797 109.1797 41.48438 108.125 44.375 C 106.0547 43.76953 103.9648 43.24219 101.875 42.8125 C 103.3398 39.70703 104.6875 36.36719 105.9375 32.8125 L 79.37499 32.8125 C 76.87499 38.24219 73.96484 43.24219 70.62499 47.8125 C 68.96484 46.79688 66.77734 45.95703 64.06249 45.3125 ZM 77.18749 80.625 C 81.36718 80.625 84.06249 80.37109 85.31249 79.86328 C 86.56249 79.35547 87.18749 78.24219 87.18749 76.5625 L 87.18749 50.3125 C 87.18749 45.33203 87.08984 41.67969 86.87499 39.375 L 93.43749 39.375 C 93.24218 41.67969 93.12499 45.33203 93.12499 50.3125 L 93.12499 80 C 93.12499 82.71484 91.99218 84.53125 89.68749 85.46875 C 87.40234 86.40625 84.27734 87.1875 80.31249 87.8125 C 79.90234 85.74219 78.86718 83.33984 77.18749 80.625 ZM 103.125 50.9375 C 108.125 57.83203 112.5 64.29688 116.25 70.3125 C 115 71.17188 113.0273 72.42188 110.3125 74.0625 C 106.7773 67.42188 102.7148 60.74219 98.12499 54.0625 C 100.2148 52.83203 101.875 51.79688 103.125 50.9375 ZM 64.06249 70.625 C 69.27734 65.23438 73.65234 58.86719 77.18749 51.5625 C 79.68749 52.83203 81.67968 53.86719 83.12499 54.6875 C 81.87499 56.79688 79.99999 59.70703 77.49999 63.45703 C 74.99999 67.20703 72.18749 70.95703 69.06249 74.6875 C 67.40234 73.24219 65.74218 71.89453 64.06249 70.625 M 130.9375 68.125 L 142.1875 68.125 L 142.1875 80.625 C 141.5625 85.83984 138.9648 89.6875 134.375 92.1875 L 131.25 89.375 C 135 87.30469 136.875 84.17969 136.875 80 M 262.8125 20.9375 C 264.9023 20.95703 268.125 20.85938 272.5 20.625 L 272.5 26.5625 C 268.75 26.36719 265 26.26953 261.25 26.25 L 254.0625 26.25 L 250 34.375 L 250 63.4375 C 250 67.20703 250.1172 71.05469 250.3125 75 L 243.75 75 C 243.9648 71.05469 244.0625 67.10938 244.0625 63.125 L 244.0625 43.125 C 240.3125 48.35938 234.2773 54.39453 225.9375 61.25 C 224.9023 59.60938 223.3398 57.92969 221.25 56.25 C 225.8398 53.76953 230.3711 50.13672 234.8437 45.33203 C 239.3359 40.54688 243.4375 34.17969 247.1875 26.25 L 232.8125 26.25 C 230.7422 26.26953 228.6523 26.36719 226.5625 26.5625 L 226.5625 20.625 C 228.6523 20.64453 231.5625 20.74219 235.3125 20.9375 ZM 220 42.1875 C 219.8047 46.17188 219.6875 50.23438 219.6875 54.375 L 219.6875 72.1875 C 226.3672 76.79688 235.7422 79.14063 247.8125 79.23828 C 259.9023 79.35547 269.5898 78.98438 276.875 78.125 C 275.625 80.625 274.8047 83.02734 274.375 85.3125 C 265.8398 85.52734 258.75 85.52734 253.125 85.3125 C 247.5 85.11719 242.6562 84.80469 238.5937 84.375 C 234.5312 83.96484 231.2109 83.28125 228.5937 82.34375 C 225.9961 81.40625 223.4961 80.21484 221.0937 78.76953 C 218.7109 77.32422 216.6211 77.48047 214.8437 79.23828 C 213.0859 80.99609 211.0547 83.55469 208.75 86.875 C 207.3047 85.21484 205.5273 83.65234 203.4375 82.1875 C 208.2422 77.61719 211.6797 74.39453 213.75 72.5 L 213.75 47.5 C 211.4648 47.51953 208.2422 47.61719 204.0625 47.8125 L 204.0625 41.875 C 208.4375 42.10938 211.875 42.20703 214.375 42.1875 ZM 259.6875 38.4375 C 262.6172 41.58203 267.8125 47.61719 275.3125 56.5625 C 273.4375 57.61719 271.5625 58.98438 269.6875 60.625 C 267.6172 57.30469 262.8125 51.26953 255.3125 42.5 C 256.9922 41.26953 258.4375 39.92188 259.6875 38.4375 ZM 213.75 17.5 C 218.9648 24.17969 222.3047 28.55469 223.75 30.625 C 221.875 31.67969 220 33.04688 218.125 34.6875 C 215.4297 30.11719 212.1875 25.74219 208.4375 21.5625 C 210.5273 20.11719 212.3047 18.76953 213.75 17.5 M 310.3125 27.5 C 311.1523 24.80469 311.875 22.48047 312.5 20.48828 C 313.125 18.51563 313.5547 16.48438 313.75 14.375 C 316.6797 15.01953 319.2773 15.64453 321.5625 16.25 C 320.5273 18.35938 319.8047 19.98047 319.375 21.11328 C 318.9648 22.26563 318.2422 24.39453 317.1875 27.5 L 342.5 27.5 C 346.875 27.51953 350.8398 27.42188 354.375 27.1875 L 354.375 33.125 C 350.8398 32.92969 346.875 32.83203 342.5 32.8125 L 315.3125 32.8125 C 314.0625 35.74219 312.4609 38.98438 310.4687 42.51953 C 308.4961 46.07422 305.9375 49.92188 302.8125 54.0625 L 302.8125 75.9375 C 302.8125 80.11719 302.9297 84.17969 303.125 88.125 L 296.5625 88.125 C 296.7773 84.17969 296.875 80.11719 296.875 75.9375 L 296.875 59.6875 C 293.5547 62.83203 290.5273 65.42969 287.8125 67.5 C 286.3672 65.64453 284.5898 64.08203 282.5 62.8125 C 285 61.36719 287.5 59.60938 290 57.51953 C 292.5 55.44922 294.8047 53.04688 296.875 50.3125 C 296.875 48.45703 296.7773 46.58203 296.5625 44.6875 L 301.5625 44.6875 C 303.0273 43.04688 304.3359 41.17188 305.4687 39.08203 C 306.6211 37.01172 307.6172 34.92188 308.4375 32.8125 L 300.9375 32.8125 C 295.9375 32.83203 291.5625 32.92969 287.8125 33.125 L 287.8125 27.1875 C 291.7773 27.42188 296.1523 27.51953 300.9375 27.5 ZM 326.25 51.875 L 326.25 47.5 C 326.25 43.35938 326.1523 40.01953 325.9375 37.5 L 332.8125 37.5 C 332.6172 40.01953 332.5 43.35938 332.5 47.5 L 332.5 51.875 L 339.6875 51.875 C 343.4375 51.89453 346.875 51.79688 350 51.5625 L 350 57.5 C 346.875 57.30469 343.4375 57.20703 339.6875 57.1875 L 332.5 57.1875 L 332.5 78.125 L 344.375 78.125 C 348.3398 78.14453 351.875 78.04688 355 77.8125 L 355 83.4375 C 351.875 83.24219 348.3398 83.125 344.375 83.125 L 319.0625 83.125 C 313.6523 83.125 309.375 83.24219 306.25 83.4375 L 306.25 77.8125 C 309.375 78.04688 313.6523 78.14453 319.0625 78.125 L 326.25 78.125 L 326.25 57.1875 L 320.3125 57.1875 C 316.5625 57.20703 312.9297 57.30469 309.375 57.5 L 309.375 51.5625 C 312.9297 51.79688 316.5625 51.89453 320.3125 51.875 M 410 17.8125 C 409.5898 20.74219 409.375 23.76953 409.375 26.875 L 409.375 38.75 L 424.375 38.75 C 427.9297 38.76953 430.9375 38.67188 433.4375 38.4375 L 433.4375 43.75 C 430.9375 43.55469 428.0273 43.45703 424.6875 43.4375 L 419.0625 43.4375 L 419.0625 76.25 C 419.2773 78.76953 420.625 80.11719 423.125 80.3125 L 425.9375 80.3125 C 426.9922 80.52734 427.8125 79.60938 428.4375 77.51953 C 429.0625 75.44922 429.375 73.24219 429.375 70.9375 C 431.25 71.99219 433.2422 72.83203 435.3125 73.4375 C 434.9023 77.61719 434.0625 80.625 432.8125 82.5 C 431.5625 84.375 430.1172 85.3125 428.4375 85.3125 L 420.625 85.3125 C 415.625 85.3125 413.3398 82.71484 413.75 77.5 L 413.75 43.4375 L 409.375 43.4375 C 409.1797 50.74219 408.3398 57.10938 406.875 62.51953 C 405.4297 67.94922 403.6523 72.42188 401.5625 75.95703 C 399.4922 79.51172 396.3672 83.24219 392.1875 87.1875 C 391.1523 85.52734 389.4922 84.27734 387.1875 83.4375 C 391.9922 80.52734 395.8398 75.91797 398.75 69.55078 C 401.6797 63.20313 403.4375 54.49219 404.0625 43.4375 L 399.375 43.4375 C 396.875 43.45703 393.8672 43.55469 390.3125 43.75 L 390.3125 38.4375 C 393.6523 38.67188 396.7773 38.76953 399.6875 38.75 L 404.0625 38.75 L 404.0625 28.125 C 404.0625 24.80469 403.9648 21.26953 403.75 17.5 C 407.0898 17.73438 409.1797 17.83203 410 17.8125 ZM 393.125 21.5625 C 391.0547 23.24219 387.9297 26.36719 383.75 30.9375 C 385.2148 34.49219 386.4648 38.67188 387.5 43.45703 C 388.5547 48.26172 389.0625 53.55469 389.0625 59.375 C 389.0625 65.01953 388.3984 70.13672 387.0312 74.70703 C 385.6836 79.29688 383.5937 82.34375 380.7812 83.90625 C 377.9687 85.46875 375.5273 86.46484 373.4375 86.875 C 372.6172 84.80469 371.4648 82.92969 370 81.25 C 373.9648 80.83984 376.875 79.70703 378.75 77.83203 C 380.625 75.95703 381.875 73.45703 382.5 70.33203 C 383.125 67.20703 383.4375 63.98438 383.4375 60.625 L 383.4375 53.125 C 377.8125 59.39453 372.7148 63.98438 368.125 66.875 C 366.875 65.01953 365.4297 63.45703 363.75 62.1875 C 366.6797 60.95703 370.0586 58.73047 373.9062 55.48828 C 377.7734 52.26563 380.5273 49.17969 382.1875 46.25 C 381.5625 41.48438 380.625 37.73438 379.375 35 C 375.8398 38.14453 372.1875 41.05469 368.4375 43.75 C 367.6172 42.10938 366.3672 40.64453 364.6875 39.375 C 368.8672 37.30469 372.9297 34.29688 376.875 30.3125 C 373.9648 26.99219 371.25 24.60938 368.75 23.125 C 370.2148 21.26953 371.3672 19.60938 372.1875 18.125 C 375.1172 20.23438 378.0273 23.04688 380.9375 26.5625 C 383.4375 24.49219 385.9375 21.48438 388.4375 17.5 C 389.9023 18.76953 391.4648 20.11719 393.125 21.5625 ZM 420.3125 20.3125 C 424.6875 25.95703 427.3047 29.39453 428.125 30.625 C 426.4648 31.48438 425 32.61719 423.75 34.0625 C 422.7148 31.99219 420.1172 28.67188 415.9375 24.0625 C 416.9922 23.24219 418.4375 21.99219 420.3125 20.3125 M 492.5 16.5625 C 491.4648 17.83203 490.4297 19.17969 489.375 20.625 L 507.8125 20.625 C 505.9375 24.39453 504.1797 28.14453 502.5 31.875 L 514.3749 31.875 C 514.1796 34.39453 514.0624 36.99219 514.0624 39.6875 C 514.0624 42.20703 514.1796 44.80469 514.3749 47.5 L 494.6875 47.5 C 493.6523 48.76953 492.6172 49.92188 491.5625 50.9375 C 493.6523 53.86719 495.5273 56.48438 497.1875 58.75 C 502.1875 55.85938 505.7422 53.04688 507.8125 50.3125 C 509.0625 51.79688 510.7422 53.45703 512.8124 55.3125 C 510.3125 56.58203 508.125 57.83203 506.25 59.0625 C 507.3047 64.70703 508.9648 68.88672 511.25 71.58203 C 513.5546 74.29688 515.6249 76.05469 517.4999 76.875 C 515.4296 78.55469 513.7499 80.52734 512.4999 82.8125 C 508.5547 78.24219 505.9375 74.19922 504.6875 70.64453 C 503.4375 67.10938 502.6172 63.86719 502.1875 60.9375 C 500.9375 61.79688 499.8047 62.51953 498.75 63.125 C 499.8047 66.48438 500.3711 69.66797 500.4687 72.67578 C 500.5859 75.70313 500.4297 78.35938 500 80.625 C 499.5898 82.92969 498.2812 84.64844 496.0937 85.78125 C 493.9062 86.93359 491.25 87.92969 488.125 88.75 C 487.5 86.875 486.3672 84.80469 484.6875 82.5 C 490.7422 82.30469 494.0625 81.26953 494.6875 79.39453 C 495.3125 77.51953 495.4297 74.39453 495 70 C 491.6797 73.76953 488.0859 76.89453 484.2187 79.39453 C 480.3711 81.89453 476.1523 84.27734 471.5625 86.5625 C 470.7422 84.90234 469.5898 83.02734 468.125 80.9375 C 474.375 79.29688 479.7461 76.79688 484.2187 73.45703 C 488.7109 70.13672 491.875 67.10938 493.75 64.375 C 493.5547 63.35938 493.0273 61.99219 492.1875 60.3125 C 488.2422 64.49219 484.8437 67.51953 482.0312 69.39453 C 479.2187 71.26953 476.1523 72.92969 472.8125 74.375 C 471.7773 72.51953 470.625 70.85938 469.375 69.375 C 473.75 68.35938 477.7734 66.58203 481.4062 64.08203 C 485.0586 61.58203 487.8125 59.08203 489.6875 56.5625 C 489.2773 55.95703 488.6523 55.23438 487.8125 54.375 L 481.5625 58.75 C 480.3125 59.60938 478.4375 60.74219 475.9375 62.1875 C 474.4922 60.33203 473.125 58.86719 471.875 57.8125 C 475 56.79688 478.2422 55.17578 481.5625 52.98828 C 484.9023 50.80078 487.0898 48.98438 488.125 47.5 L 477.8125 47.5 C 478.0273 44.60938 478.125 42.30469 478.125 40.625 L 478.125 35 C 477.0898 36.26953 475.9375 37.42188 474.6875 38.4375 C 473.4375 37.42188 471.875 36.26953 470 35 C 473.125 32.10938 476.1523 28.82813 479.0625 25.17578 C 481.9922 21.54297 484.1797 17.83203 485.625 14.0625 C 487.7148 14.92188 490 15.74219 492.5 16.5625 ZM 470 57.8125 C 467.7148 57.42188 465.7422 57.10938 464.0625 56.875 C 465.7422 52.73438 466.6797 50.01953 466.875 48.75 L 460.9375 48.75 L 460.9375 79.0625 C 460.9375 82.61719 459.8437 84.90234 457.6562 85.9375 C 455.4687 86.99219 452.8125 87.71484 449.6875 88.125 C 449.4922 86.05469 448.5547 83.96484 446.875 81.875 C 450.8398 81.67969 453.2422 81.30859 454.0625 80.78125 C 454.9023 80.27344 455.3125 79.29688 455.3125 77.8125 L 455.3125 48.75 L 453.125 48.75 C 450.4297 48.76953 447.5 48.86719 444.375 49.0625 L 444.375 43.75 C 447.5 43.98438 450.3125 44.08203 452.8125 44.0625 L 474.0625 44.0625 C 472.4023 49.70703 471.0547 54.29688 470 57.8125 ZM 463.75 39.375 C 462.0898 40.42969 460.625 41.79688 459.375 43.4375 C 456.6797 39.92188 453.3398 36.58203 449.375 33.4375 L 452.5 29.6875 C 454.375 30.95703 455.9375 32.20703 457.1875 33.4375 C 460.3125 29.92188 462.9297 26.89453 465 24.375 C 456.0547 24.39453 449.6875 24.49219 445.9375 24.6875 L 445.9375 19.6875 C 449.6875 19.92188 453.6523 20.01953 457.8125 20 L 472.8125 20 L 472.8125 25.625 C 470.5273 26.89453 468.4961 28.45703 466.7187 30.33203 C 464.9609 32.20703 463.0273 34.29688 460.9375 36.5625 L 463.75 39.375 ZM 496.5625 31.875 C 497.4023 29.80469 498.3398 27.61719 499.375 25.3125 L 486.25 25.3125 C 484.1797 28.04688 482.4023 30.23438 480.9375 31.875 ZM 508.4375 42.8125 L 508.4375 36.5625 L 498.4375 36.5625 C 498.0273 38.67188 497.5 40.74219 496.875 42.8125 ZM 491.25 42.8125 C 491.875 40.95703 492.4023 38.86719 492.8125 36.5625 L 483.75 36.5625 M 567.1874 40.625 L 567.1874 25 C 567.1874 22.10938 567.0898 18.98438 566.8749 15.625 L 574.0624 15.625 C 573.6523 18.98438 573.4374 22.10938 573.4374 25 L 573.4374 40.625 L 586.2499 40.625 C 588.9648 40.64453 592.1874 40.54688 595.9374 40.3125 L 595.9374 46.5625 C 592.4023 46.36719 589.2773 46.26953 586.5624 46.25 L 573.4374 46.25 L 573.4374 76.875 C 573.4374 80.21484 573.5546 83.65234 573.7499 87.1875 L 566.8749 87.1875 C 567.0898 83.86719 567.1874 80.52734 567.1874 77.1875 L 567.1874 46.25 L 556.2499 46.25 C 552.9296 46.26953 549.6874 46.36719 546.5624 46.5625 L 546.5624 40.3125 C 549.6874 40.54688 552.8124 40.64453 555.9374 40.625 ZM 550.9374 18.4375 C 549.6874 20.33203 548.4374 22.42188 547.1874 24.70703 C 545.9374 27.01172 544.6874 29.49219 543.4374 32.1875 L 543.4374 75 C 543.4374 80.42969 543.5546 84.6875 543.7499 87.8125 L 536.5624 87.8125 C 536.7773 84.27734 536.8749 80.21484 536.8749 75.625 L 536.8749 43.75 C 534.3749 48.14453 531.6796 52.30469 528.7499 56.25 C 527.4999 54.80469 525.9374 53.24219 524.0624 51.5625 C 527.8124 47.83203 531.7773 41.89453 535.9374 33.76953 C 540.1171 25.64453 542.7148 19.39453 543.7499 15 C 546.0546 16.48438 548.4374 17.61719 550.9374 18.4375 M 655.9374 36.5625 C 654.4921 37.83203 652.0312 40.85938 648.5937 45.64453 C 645.1562 50.44922 640.8398 55.64453 635.6249 61.26953 C 630.4296 66.89453 625.8398 71.48438 621.8749 75 C 626.4648 74.80469 632.4609 74.51172 639.8437 74.08203 C 647.246 73.67188 654.3749 73.24219 661.2499 72.8125 C 657.9296 66.99219 655.1171 62.51953 652.8124 59.375 C 654.9023 58.14453 656.6796 56.79688 658.1249 55.3125 C 661.4648 59.92188 664.6874 64.55078 667.8124 69.23828 C 670.9374 73.92578 673.6523 78.35938 675.9374 82.5 C 674.4921 82.92969 672.3046 84.27734 669.3749 86.5625 C 668.1249 84.0625 666.5624 81.36719 664.6874 78.4375 C 654.4921 78.86719 643.5937 79.60938 632.0312 80.625 C 620.4687 81.67969 614.0624 82.61719 612.8124 83.4375 C 611.9921 80.9375 611.0546 78.35938 609.9999 75.625 C 613.1249 75.42969 618.5937 71.26953 626.4062 63.14453 C 634.2187 55.01953 641.6796 44.49219 648.7499 31.5625 C 650.8398 33.45703 653.2421 35.11719 655.9374 36.5625 ZM 642.8124 20 C 642.1874 21.05469 640.4687 23.82813 637.6562 28.30078 C 634.8437 32.79297 631.2499 37.51953 626.8749 42.51953 C 622.4999 47.51953 616.5624 53.14453 609.0624 59.375 C 607.6171 57.10938 605.9374 55.23438 604.0624 53.75 C 609.2773 50.85938 615.1171 45.60547 621.5624 37.98828 C 628.0273 30.39063 632.8124 23.04688 635.9374 15.9375 C 638.6523 17.83203 640.9374 19.17969 642.8124 20 M 704.9999 22.5 C 710.4296 21.89453 714.8046 24.70703 718.1249 30.9375 C 720.2148 38.04688 717.4023 45.11719 709.6874 52.1875 C 707.1874 55.95703 705.9374 60.01953 705.9374 64.375 L 700.3124 64.375 C 700.1171 56.67969 703.5546 49.39453 710.6249 42.5 C 712.3046 40.01953 713.0273 37.30469 712.8124 34.375 C 711.5624 30.23438 709.1796 28.24219 705.6249 28.4375 L 704.3749 28.4375 C 699.9999 28.67188 697.9296 31.89453 698.1249 38.125 L 692.1874 38.125 C 691.9921 30.42969 694.5898 25.64453 699.9999 23.75 C 700.8398 23.14453 702.4999 22.73438 704.9999 22.5 ZM 699.0624 70.9375 L 707.8124 70.9375 L 707.8124 80 "  />
</svg>
