<?xml version="1.0" encoding="utf-8" standalone="no"?>
<!DOCTYPE svg PUBLIC "-//W3C//DTD SVG 1.1//EN" "http://www.w3.org/Graphics/SVG/1.1/DTD/svg11-flat-20030114.dtd">
<svg version="1.1" xmlns="http://www.w3.org/2000/svg" xmlns:xlink="http://www.w3.org/1999/xlink">
<!-- AfterClass Logo by AlanLiang -->
<!--green circle-->
<circle cx="274.5" cy="249.5" r="170.5" fill="#00FF00" stroke="#000000" transform="matrix(0.279,0,0,0.279,-26.27608,-20.27215)" xmlns="http://www.w3.org/2000/svg" />
<!--words-->
<path d="M 154.3125 156.4375 L 150.125 145.4375 L 134.5 145.4375 L 130.3125 156.4375 L 126.8125 156.4375 L 140.375 121.125 L 144.3125 121.125 L 157.75 156.4375 ZM 142.25 123.875 L 141.25 127 L 140.125 130.125 L 135.4375 142.625 L 149.1875 142.625 L 144.5 130.0625 L 143.375 127 L 142.375 123.875 ZM 166.9375 133.5625 L 166.9375 156.4375 L 163.8125 156.4375 L 163.8125 133.5625 L 159.5 133.5625 L 159.5 130.9375 L 163.8125 130.9375 L 163.8125 128 L 164.25 124.4375 L 165.5 121.9375 L 167.625 120.5 L 170.625 120 L 172.25 120.0625 L 173.5 120.3125 L 173.5 122.8125 L 170.8125 122.5625 L 169.0625 122.9375 L 167.875 124 L 167.1875 125.8125 L 166.9375 128.5 L 166.9375 130.9375 L 172.375 130.9375 L 172.375 133.5625 ZM 183.625 156.875 L 181.1875 156.5 L 179.4375 155.375 L 178.375 153.5625 L 178.0625 151 L 178.0625 133.5625 L 174.3125 133.5625 L 174.3125 130.9375 L 178.0625 130.9375 L 178.9375 125 L 181.1875 125 L 181.1875 130.9375 L 187.875 130.9375 L 187.875 133.5625 L 181.1875 133.5625 L 181.1875 150.4375 L 181.875 153.25 L 182.875 154 L 184.4375 154.25 L 188.1875 153.8125 L 188.1875 156.3125 L 183.625 156.875 ZM 194.9375 144.1875 L 195.5 148.4375 L 197.0625 151.6875 L 199.5625 153.6875 L 202.875 154.3125 L 205.1875 154.0625 L 207.125 153.3125 L 208.8125 151.9375 L 210.25 149.8125 L 212.6875 151.1875 L 210.8125 153.875 L 208.5625 155.625 L 205.9375 156.625 L 202.8125 157 L 200.25 156.75 L 198.0625 156.125 L 196.1875 155 L 194.5625 153.5 L 193.3125 151.5625 L 192.4375 149.25 L 191.875 146.5625 L 191.6875 143.5 L 192.0625 139.625 L 193.0625 136.375 L 194.6875 133.8125 L 196.875 131.9375 L 199.625 130.8125 L 202.6875 130.4375 L 205.125 130.625 L 207.1875 131.25 L 209 132.3125 L 210.5 133.75 L 212.5625 137.8125 L 213.25 143.375 L 213.25 144.1875 ZM 202.5625 133.0625 L 199.5 133.625 L 197.1875 135.25 L 195.625 137.9375 L 195 141.6875 L 209.9375 141.6875 L 209.3125 137.9375 L 207.875 135.25 L 205.625 133.625 L 202.5625 133.0625 ZM 219.375 156.4375 L 219.375 137.25 L 219.3125 134.6875 L 219.125 130.9375 L 222.0625 130.9375 L 222.3125 136.75 L 222.375 136.75 L 223.5625 133.8125 L 225.125 131.875 L 227.0625 130.8125 L 229.5 130.4375 L 231.4375 130.625 L 231.4375 133.625 L 229.125 133.375 L 226.375 134.0625 L 224.25 136.0625 L 222.9375 139.3125 L 222.5 143.5 L 222.5 156.4375 ZM 139.5625 215 L 136.375 214.6875 L 133.5625 213.75 L 131.125 212.1875 L 129 210.0625 L 127.375 207.375 L 126.1875 204.25 L 125.4375 200.6875 L 125.1875 196.625 L 125.4375 192.625 L 126.1875 189.0625 L 127.375 185.9375 L 129.125 183.3125 L 131.25 181.25 L 133.75 179.75 L 136.625 178.875 L 139.875 178.5625 L 143.9375 179 L 147.3125 180.375 L 150 182.75 L 152.0625 186.1875 L 149 187.4375 L 147.5 184.6875 L 145.4375 182.875 L 142.9375 181.8125 L 139.875 181.4375 L 137.3125 181.6875 L 135.0625 182.4375 L 133.125 183.75 L 131.5 185.5 L 130.25 187.6875 L 129.3125 190.3125 L 128.75 193.25 L 128.5625 196.625 L 128.75 200.0625 L 129.3125 203.0625 L 130.25 205.75 L 131.5 208 L 133.125 209.8125 L 135.0625 211.125 L 137.1875 211.875 L 139.6875 212.125 L 143.0625 211.6875 L 145.75 210.3125 L 147.8125 208.1875 L 149.25 205.4375 L 152.125 206.75 L 150.0625 210.375 L 147.25 212.9375 L 143.75 214.5 L 139.5625 215 ZM 157.5625 214.4375 L 157.5625 178 L 160.6875 178 L 160.6875 214.4375 ZM 175.6875 212.3125 L 177.75 212.0625 L 179.5625 211.3125 L 181.0625 210.0625 L 182.1875 208.4375 L 182.9375 206.5625 L 183.1875 204.625 L 183.1875 201.5 L 179.5625 201.625 L 175.25 202.0625 L 172.375 203.1875 L 170.8125 205 L 170.25 207.5 L 170.5625 209.625 L 171.625 211.125 L 173.3125 212 L 175.6875 212.3125 ZM 186.3125 214.4375 L 183.3125 214.4375 L 183.1875 209.9375 L 183.0625 209.9375 L 181.625 212.125 L 179.8125 213.75 L 177.6875 214.6875 L 175.1875 215 L 171.6875 214.5 L 169.125 213 L 167.5 210.6875 L 167 207.5625 L 167.75 204.0625 L 169.9375 201.5 L 171.625 200.5625 L 173.6875 199.9375 L 176.125 199.4375 L 179 199.25 L 183.125 199.125 L 183.125 198.125 L 182.8125 195 L 181.6875 192.75 L 179.875 191.5 L 177.3125 191.0625 L 174.9375 191.3125 L 173.1875 191.9375 L 172 193.1875 L 171.25 194.9375 L 168.3125 194.3125 L 169.4375 191.5625 L 171.3125 189.75 L 173.9375 188.75 L 177.375 188.4375 L 181.4375 189 L 184.1875 190.8125 L 185.75 193.875 L 186.3125 198.375 ZM 209.0625 207.4375 L 208.5 210.625 L 206.75 213 L 203.9375 214.5 L 200.1875 215 L 196.6875 214.625 L 194 213.5625 L 192.125 211.6875 L 191 208.8125 L 193.875 208.3125 L 194.625 210.125 L 195.875 211.4375 L 197.6875 212.25 L 200.1875 212.5 L 202.75 212.1875 L 204.5625 211.3125 L 205.625 209.8125 L 206 207.6875 L 205.5 205.5 L 204 204.0625 L 201.8125 203.1875 L 199.0625 202.4375 L 196.6875 201.6875 L 195 200.875 L 192.875 198.6875 L 192.125 195.5 L 192.625 192.5 L 194.1875 190.25 L 196.75 188.875 L 200.1875 188.4375 L 203.4375 188.75 L 205.8125 189.75 L 207.4375 191.5625 L 208.5 194.0625 L 205.5 194.4375 L 204.875 192.8125 L 203.8125 191.75 L 202.3125 191.125 L 200.1875 190.875 L 198 191.1875 L 196.4375 192 L 195.5 193.375 L 195.1875 195.1875 L 195.6875 197.25 L 197.125 198.5625 L 198.6875 199.25 L 201.4375 200.0625 L 204.3125 201 L 206.125 201.875 L 208.3125 204.0625 L 209.0625 207.4375 ZM 229.625 207.4375 L 229 210.625 L 227.25 213 L 224.5 214.5 L 220.75 215 L 217.25 214.625 L 214.5625 213.5625 L 212.6875 211.6875 L 211.5 208.8125 L 214.375 208.3125 L 215.125 210.125 L 216.375 211.4375 L 218.1875 212.25 L 220.6875 212.5 L 223.25 212.1875 L 225.0625 211.3125 L 226.125 209.8125 L 226.5 207.6875 L 226 205.5 L 224.5625 204.0625 L 222.3125 203.1875 L 219.5625 202.4375 L 217.25 201.6875 L 215.5 200.875 L 213.375 198.6875 L 212.6875 195.5 L 213.1875 192.5 L 214.6875 190.25 L 217.25 188.875 L 220.75 188.4375 L 223.9375 188.75 L 226.3125 189.75 L 227.9375 191.5625 L 229 194.0625 L 226 194.4375 L 225.375 192.8125 L 224.3125 191.75 L 222.8125 191.125 L 220.75 190.875 L 218.5 191.1875 L 216.9375 192 L 216 193.375 L 215.6875 195.1875 L 216.1875 197.25 L 217.625 198.5625 L 219.1875 199.25 L 221.9375 200.0625 L 224.8125 201 L 226.6875 201.875 L 228.8125 204.0625 L 229.4375 205.5625 L 229.625 207.4375 Z" fill="#F0000F" stroke="#F0000F" stroke-width="1" transform="matrix(0.596,0,0,0.596,-58.42806,-55.26109)" xmlns="http://www.w3.org/2000/svg" />
</svg>